<?xml version="1.0" standalone="no"?>
<!DOCTYPE svg PUBLIC "-//W3C//DTD SVG 20010904//EN"
 "http://www.w3.org/TR/2001/REC-SVG-20010904/DTD/svg10.dtd">
<svg version="1.0" xmlns="http://www.w3.org/2000/svg"
 width="260.000000pt" height="260.000000pt" viewBox="0 0 260.000000 260.000000"
 preserveAspectRatio="xMidYMid meet">
<metadata>
Created by potrace 1.14, written by Peter Selinger 2001-2017
</metadata>
<g transform="translate(0.000000,260.000000) scale(0.100000,-0.100000)"
fill="#000000" stroke="none">
<path d="M1236 2386 c-84 -61 -229 -122 -331 -140 -67 -12 -85 -18 -86 -29 -1
-15 -1 -370 0 -379 1 -4 11 -5 24 -3 12 2 47 6 77 10 58 6 85 13 188 51 45 16
64 19 67 11 2 -7 3 -409 2 -895 l-2 -882 208 0 207 0 0 1143 0 1142 -157 0
-157 0 -40 -29z"/>
</g>
</svg>
