<?xml version="1.0" standalone="no"?>
<!DOCTYPE svg PUBLIC "-//W3C//DTD SVG 20010904//EN"
 "http://www.w3.org/TR/2001/REC-SVG-20010904/DTD/svg10.dtd">
<svg version="1.0" xmlns="http://www.w3.org/2000/svg"
 width="260.000000pt" height="260.000000pt" viewBox="0 0 260.000000 260.000000"
 preserveAspectRatio="xMidYMid meet">
<metadata>
Created by potrace 1.14, written by Peter Selinger 2001-2017
</metadata>
<g transform="translate(0.000000,260.000000) scale(0.100000,-0.100000)"
fill="#000000" stroke="none">
<path d="M99 2517 c-7 -14 -2 -450 5 -455 5 -3 171 -6 367 -6 197 -1 361 -5
366 -9 4 -5 8 -462 8 -1015 l0 -1007 455 -3 455 -2 0 1015 c-1 558 2 1016 5
1016 3 1 165 3 360 4 195 2 362 4 370 4 13 1 15 33 14 229 l-1 227 -1201 2
c-661 2 -1203 2 -1203 0z"/>
</g>
</svg>
